<?xml version="1.0" standalone="no"?>
<!DOCTYPE svg PUBLIC "-//W3C//DTD SVG 20010904//EN"
 "http://www.w3.org/TR/2001/REC-SVG-20010904/DTD/svg10.dtd">
<svg version="1.0" xmlns="http://www.w3.org/2000/svg"
 width="300.000000pt" height="400.000000pt" viewBox="0 0 300.000000 400.000000"
 preserveAspectRatio="xMidYMid meet">
<metadata>
Created by potrace 1.10, written by Peter Selinger 2001-2011
</metadata>
<g transform="translate(0.000000,400.000000) scale(0.100000,-0.100000)"
fill="#000000" stroke="none">
<path d="M1385 2833 c-71 -22 -172 -62 -158 -63 7 0 54 14 105 31 51 17 120
34 153 39 l60 7 -55 1 c-30 0 -77 -6 -105 -15z"/>
<path d="M1695 2835 l40 -15 -39 6 c-50 7 -208 6 -243 -2 -15 -3 -62 -19 -103
-34 -41 -15 -109 -33 -150 -40 -41 -7 -82 -18 -90 -25 -8 -7 -44 -27 -80 -44
-36 -18 -80 -42 -99 -52 -33 -20 -70 -25 -179 -28 -38 -1 -54 -5 -59 -17 -7
-18 15 -91 34 -110 16 -16 16 -29 1 -57 -13 -25 -11 -89 4 -98 6 -4 7 -33 3
-75 -4 -38 -9 -96 -12 -130 l-5 -61 -116 -37 c-64 -20 -132 -39 -149 -42 -18
-4 -30 -10 -27 -15 3 -5 -3 -6 -12 -2 -14 5 -13 8 7 18 13 7 60 22 103 34 93
26 132 45 73 37 -60 -8 -167 -44 -231 -79 -65 -35 -87 -60 -70 -77 13 -13 47
-2 38 12 -3 5 0 9 7 8 23 -3 59 12 59 24 0 6 8 12 18 13 9 0 82 21 162 47 163
52 153 49 145 36 -3 -5 -2 -10 4 -10 6 0 8 -6 5 -14 -3 -7 3 -21 13 -31 17
-17 16 -18 -31 -13 -27 3 -43 2 -37 -2 17 -10 -36 -20 -74 -13 -23 3 -27 2
-15 -6 17 -12 20 -12 -66 -14 -35 -2 -59 -8 -73 -21 -27 -24 -27 -46 -1 -46
11 0 20 4 20 8 0 13 66 33 86 26 16 -5 16 -4 4 5 -9 6 -10 11 -3 11 6 0 19 3
29 7 13 5 15 3 9 -7 -6 -10 -2 -11 16 -7 13 3 44 9 69 12 25 3 57 8 71 10 20
3 29 -2 37 -20 8 -18 8 -24 -3 -29 -8 -3 -16 0 -19 7 -2 7 -5 5 -5 -4 -1 -12
-34 -30 -108 -59 -60 -24 -112 -47 -118 -52 -12 -11 -28 -10 -21 1 3 5 53 28
111 51 113 45 138 68 33 30 -77 -28 -145 -62 -178 -90 -20 -16 -21 -19 -5 -14
11 4 17 4 13 -1 -4 -4 -18 -8 -30 -9 -30 -1 -36 -32 -8 -41 14 -4 36 3 68 23
26 16 61 34 77 40 18 6 23 11 12 11 -10 1 -46 -13 -80 -29 -43 -21 -55 -25
-40 -11 13 10 58 33 100 51 43 17 107 45 142 61 35 16 67 29 71 29 7 0 33 -51
28 -55 -14 -11 -112 -55 -115 -51 -2 2 20 18 49 35 29 17 48 31 42 31 -6 0
-51 -25 -100 -56 -113 -71 -142 -86 -153 -79 -5 3 -16 -1 -24 -9 -8 -8 -17
-13 -19 -10 -10 9 -30 -26 -24 -41 8 -22 49 -10 106 30 25 18 77 49 115 70 39
21 84 46 102 57 l32 19 21 -40 c11 -22 19 -44 18 -49 -2 -5 12 -21 30 -37 l33
-28 -37 -38 c-21 -22 -35 -39 -31 -39 4 0 22 16 39 35 29 34 32 35 54 20 13
-8 24 -13 24 -10 0 3 20 -6 43 -20 47 -27 62 -31 51 -14 -4 8 0 7 15 -1 12 -6
18 -16 15 -22 -5 -7 -2 -9 9 -5 8 3 21 -1 27 -8 7 -8 16 -13 20 -10 9 6 23
-12 26 -32 3 -18 -15 -16 -22 1 -3 8 -15 16 -26 19 -13 4 -17 10 -12 18 4 7 3
10 -3 6 -6 -4 -28 0 -48 9 -49 20 -54 13 -7 -11 20 -10 46 -26 57 -35 25 -21
110 -71 149 -88 52 -22 38 -5 -19 24 -58 29 -76 44 -53 44 10 0 9 3 -2 11 -10
7 -11 9 -2 7 8 -2 13 -7 12 -12 -2 -14 89 -55 159 -72 38 -9 80 -13 103 -9 21
4 48 8 61 9 83 11 216 71 304 139 35 27 64 43 68 37 9 -14 25 -12 22 3 -1 6
-5 14 -8 17 -4 3 5 14 19 24 15 12 22 14 17 5 -4 -8 8 2 28 20 38 36 46 48 25
35 -9 -5 -9 -3 1 9 7 9 17 14 22 11 5 -3 9 -1 9 5 0 15 60 72 87 82 12 5 23
16 23 26 -1 17 -1 17 -11 0 -10 -17 -12 -17 -23 -1 -11 15 -16 12 -47 -26 -84
-104 -92 -112 -100 -98 -7 10 -9 10 -10 1 -1 -7 -2 -16 -3 -21 -2 -16 -91 -92
-147 -127 -9 -5 -41 -26 -70 -46 -115 -76 -287 -107 -393 -71 -36 12 -60 26
-62 36 -2 14 2 14 29 2 18 -7 61 -19 97 -26 80 -15 166 -2 222 35 21 14 38 22
38 18 0 -4 7 3 16 15 8 12 20 19 26 16 6 -4 8 -3 5 3 -3 5 9 25 28 43 19 19
35 28 35 21 0 -8 9 -2 20 12 11 14 20 29 20 34 0 4 -5 1 -10 -7 -7 -10 -10
-11 -10 -2 0 7 6 15 14 18 8 3 16 17 19 32 9 42 28 60 71 67 42 6 106 40 106
56 0 6 -16 -2 -35 -17 -20 -15 -38 -24 -41 -22 -3 3 12 16 33 29 37 22 43 25
62 28 8 1 23 40 25 66 1 9 65 9 74 0 2 -2 -1 -13 -8 -24 -6 -12 -8 -26 -4 -32
7 -11 44 62 44 87 0 8 10 14 23 14 14 0 18 3 10 8 -15 9 -5 55 11 49 6 -2 65
-17 130 -33 101 -24 115 -30 90 -36 -22 -6 -19 -6 11 -3 22 3 54 0 70 -5 l30
-10 -32 5 c-18 2 -33 1 -33 -4 0 -8 132 -31 140 -24 10 9 -19 37 -51 48 -65
23 -91 27 -83 14 5 -9 2 -10 -10 -6 -9 4 -74 20 -144 37 l-127 31 0 87 c0 84
18 167 34 157 5 -2 8 6 8 18 1 64 1 64 51 73 95 15 119 17 224 16 99 -1 135 7
107 23 -16 11 -149 11 -149 1 0 -4 -7 -3 -15 4 -12 10 -31 10 -94 -1 -48 -7
-78 -16 -74 -22 4 -6 -1 -8 -11 -4 -10 4 -15 3 -11 -3 3 -6 0 -10 -9 -10 -8 0
-20 -2 -28 -3 -7 -2 -10 -2 -5 0 4 3 4 10 1 15 -4 6 -2 8 4 5 6 -5 8 1 5 14
-4 12 -9 16 -13 10 -3 -6 -14 5 -24 25 -9 20 -13 40 -9 44 11 11 144 42 150
36 3 -3 -8 -8 -23 -11 -59 -13 -93 -26 -104 -40 -10 -12 -6 -12 27 -1 21 8 64
21 96 31 65 18 73 41 13 38 -20 -1 -35 1 -32 6 8 12 -71 1 -113 -15 -33 -13
-34 -14 -6 -9 90 16 97 15 40 -5 -33 -11 -61 -20 -62 -20 -6 0 -80 108 -90
132 -10 22 -9 29 4 40 14 11 15 10 9 -12 l-8 -25 17 23 c9 13 14 30 11 38 -4
9 -2 12 5 8 8 -4 9 1 5 17 l-7 24 16 -25 16 -25 -6 25 c-5 21 -9 56 -14 119
-1 10 -10 12 -31 7 -17 -3 -29 -2 -26 2 5 9 -212 8 -221 -1 -3 -4 43 -7 103
-8 85 0 103 -3 84 -11 -27 -10 -161 -5 -265 12 -33 5 -76 12 -95 14 l-35 5 40
-14z m-69 -26 c5 -2 44 -4 86 -4 43 0 78 -3 78 -6 0 -4 7 -10 16 -13 9 -3 12
-2 9 5 -10 16 59 -16 109 -50 25 -17 49 -31 55 -31 6 0 11 -3 11 -8 0 -4 18
-27 40 -51 22 -24 38 -37 34 -28 -3 10 -2 17 4 17 10 0 22 -23 22 -41 0 -4 -8
-6 -17 -2 -10 3 1 -13 24 -36 45 -43 70 -81 55 -81 -5 0 -17 10 -27 23 -16 22
-16 22 -2 -3 14 -25 14 -25 -47 -44 -69 -21 -408 -185 -446 -216 -20 -16 -21
-19 -5 -14 11 4 31 15 45 25 60 41 335 170 433 203 63 21 67 20 67 -8 0 -14 5
-37 10 -52 6 -15 9 -28 7 -30 -2 -2 -52 -17 -113 -32 -109 -29 -311 -88 -349
-102 -58 -21 -125 -54 -125 -62 0 -12 9 -10 38 10 27 18 230 87 237 80 2 -2
-31 -21 -73 -43 -42 -22 -79 -43 -82 -46 -3 -4 -14 -9 -25 -11 -11 -3 96 -3
237 0 l256 4 1 -61 c0 -33 -4 -61 -8 -61 -5 0 -23 3 -40 6 -28 6 -31 10 -31
45 0 21 -4 40 -9 43 -5 4 -7 -13 -5 -36 l3 -43 -9 44 c-11 49 -20 64 -21 35 0
-18 -1 -18 -9 1 -8 18 -9 18 -9 2 -1 -10 6 -20 14 -23 8 -4 15 -17 15 -31 0
-18 -4 -24 -15 -19 -9 3 -74 10 -145 16 -95 8 -136 7 -151 -1 -27 -14 -18 -22
12 -10 16 6 73 4 159 -6 114 -12 138 -17 153 -35 14 -17 17 -17 17 -4 0 14 7
16 38 10 20 -4 38 -8 40 -9 1 -1 -8 -24 -20 -51 -21 -46 -25 -49 -53 -44 -17
3 -29 9 -27 13 1 4 2 12 2 17 0 6 17 11 38 12 35 1 35 1 6 5 -20 3 -35 12 -42
26 -9 18 -11 19 -11 5 -1 -13 -9 -18 -28 -18 -19 0 -24 3 -15 9 9 6 5 8 -15 8
-15 0 -41 2 -58 5 -16 3 -23 3 -15 1 8 -3 20 -9 25 -14 6 -4 30 -11 53 -15 32
-5 42 -11 42 -25 0 -11 -1 -19 -2 -19 -2 0 -59 11 -128 25 -69 13 -134 24
-145 24 -20 0 -20 0 0 -9 11 -5 33 -9 48 -9 19 -1 26 -5 21 -13 -5 -7 0 -9 14
-6 11 3 42 2 69 -3 26 -5 62 -11 80 -14 23 -4 30 -10 26 -20 -3 -8 -9 -12 -15
-9 -5 4 -8 -4 -6 -17 2 -14 -2 -23 -8 -22 -7 1 -20 -7 -29 -17 -10 -11 -24
-20 -32 -20 -7 0 -13 -4 -13 -8 0 -14 -67 -38 -86 -31 -18 6 -17 7 3 10 21 4
20 5 -5 24 -21 15 -24 15 -13 2 17 -21 9 -22 -30 -2 -16 9 -27 20 -25 24 6 9
-43 36 -58 32 -5 -1 -12 2 -15 7 -3 6 -44 29 -90 52 -63 32 -80 45 -70 52 11
8 10 9 -3 4 -28 -9 -44 -13 -34 -8 5 3 -6 11 -24 18 -17 8 -35 12 -39 10 -4
-3 -17 3 -30 13 -19 14 -23 27 -23 69 1 29 -2 52 -7 52 -7 0 -35 74 -44 115
-3 11 -3 1 -1 -23 2 -27 0 -41 -6 -37 -6 3 -10 13 -10 20 0 8 -12 22 -26 32
-21 14 -29 14 -46 4 -14 -8 -23 -9 -32 -2 -7 6 -16 7 -20 3 -4 -4 -4 7 0 23 4
17 8 37 8 46 0 11 6 14 20 11 12 -3 17 -1 13 5 -4 7 10 11 36 12 56 2 78 6 99
15 10 5 30 2 48 -7 17 -9 27 -11 24 -5 -5 7 0 9 15 5 14 -3 24 0 28 9 3 8 10
11 17 8 6 -3 -13 17 -42 46 l-52 52 -58 -6 c-76 -7 -82 -8 -77 -16 2 -4 -2
-16 -10 -26 -25 -33 -16 -40 10 -8 25 33 83 52 108 37 6 -4 17 -8 23 -9 6 -1
24 -10 40 -20 l28 -19 -49 -7 c-28 -3 -67 -13 -87 -22 -21 -9 -52 -16 -71 -16
-18 0 -39 -6 -46 -12 -16 -16 -14 -8 22 63 26 52 27 57 13 89 l-14 34 1 -49
c0 -35 -7 -64 -25 -97 -14 -26 -28 -45 -31 -42 -2 3 -4 -24 -3 -60 2 -47 7
-71 21 -86 22 -24 55 -29 35 -5 -7 8 -16 13 -19 10 -4 -2 -8 2 -8 10 0 20 4
19 30 -5 13 -12 32 -20 47 -18 17 2 25 -2 26 -12 1 -26 15 -50 30 -50 10 0 14
-13 14 -46 0 -32 -3 -43 -12 -38 -7 4 -8 3 -4 -5 4 -6 12 -9 17 -6 5 4 9 -4 9
-17 0 -27 -36 -86 -42 -68 -3 9 -56 -87 -79 -144 -7 -16 45 -14 66 1 19 14 19
15 -7 9 -45 -10 -32 0 21 18 57 18 78 20 39 3 -24 -11 -21 -12 33 -12 38 0 60
4 64 12 2 7 10 13 16 13 8 0 7 -5 -2 -17 -7 -10 0 -6 17 10 17 15 40 27 51 27
12 0 25 5 28 10 3 6 21 10 38 10 27 -1 29 -2 14 -11 -17 -10 -16 -13 14 -35
18 -13 53 -31 78 -40 25 -10 56 -26 69 -37 12 -11 22 -17 22 -12 0 4 -8 14
-17 21 -16 12 -16 13 -2 14 67 1 22 -106 -86 -209 -82 -77 -160 -115 -216
-104 -26 5 -30 3 -24 -8 7 -11 6 -12 -6 -3 -8 6 -40 14 -72 17 -38 4 -71 14
-93 29 -43 29 -44 44 -1 22 32 -17 87 -26 87 -15 0 10 -62 31 -71 25 -13 -8
-60 24 -93 63 -33 39 -42 79 -19 87 11 5 13 2 9 -9 -3 -9 -2 -13 3 -10 6 3 9
13 9 23 0 9 3 25 6 34 9 20 -17 19 -37 -2 -10 -10 -9 -11 2 -5 9 5 12 3 9 -5
-2 -7 -11 -14 -20 -16 -11 -1 -15 3 -11 14 3 10 -7 2 -22 -15 -16 -20 -36 -33
-50 -33 -13 0 -25 -5 -27 -11 -2 -7 -12 -7 -31 0 l-28 11 47 55 c26 31 44 58
42 61 -3 3 -15 -7 -26 -21 -11 -14 -23 -21 -26 -16 -7 11 68 85 146 143 56 41
83 77 30 39 -17 -12 -34 -26 -37 -31 -4 -6 -11 -10 -17 -10 -7 0 1 14 17 30
16 17 24 30 18 30 -10 0 -58 -58 -58 -69 0 -3 -41 -45 -91 -93 -82 -79 -93
-87 -105 -72 -12 15 -7 22 41 63 105 89 131 117 60 66 -36 -26 -77 -61 -92
-78 l-27 -30 -12 47 c-13 54 -24 66 -24 26 0 -15 4 -26 9 -22 5 3 7 -4 4 -15
-3 -12 -2 -27 3 -34 4 -7 4 -18 -2 -25 -6 -7 -2 -17 12 -30 11 -10 25 -27 30
-36 19 -35 -16 -7 -55 45 -22 29 -32 46 -23 38 10 -8 17 -9 17 -3 0 6 -5 14
-10 17 -6 4 -19 24 -30 46 -20 37 -17 45 13 40 4 0 7 3 7 7 0 4 17 14 38 21
52 19 305 133 317 143 14 12 -60 -15 -121 -44 -28 -14 -59 -28 -69 -32 -16 -6
-16 -4 -4 11 9 11 -2 7 -31 -10 -57 -35 -143 -77 -169 -82 -11 -2 -22 3 -25
11 -4 10 8 21 42 35 74 31 88 38 75 38 -6 1 -32 -8 -58 -19 -26 -11 -48 -20
-50 -20 -9 0 -23 60 -14 61 5 1 12 2 17 3 4 1 36 6 72 10 36 5 108 19 160 33
52 13 103 22 113 19 10 -2 30 2 45 10 26 14 25 15 -23 9 -27 -4 -67 -11 -88
-16 -21 -6 -46 -7 -56 -4 -19 6 -142 -20 -172 -35 -9 -5 -35 -11 -58 -12 -22
-2 -41 -3 -41 -4 0 0 7 -15 16 -33 8 -17 14 -36 12 -43 -5 -14 -58 95 -61 125
-2 25 7 27 208 56 152 22 206 24 242 10 13 -5 23 -5 23 0 0 13 -38 21 -102 21
-53 0 -296 -32 -345 -46 -21 -6 -23 -3 -24 32 l-2 39 -7 -40 -7 -40 -2 47 c0
26 4 50 9 53 6 3 11 0 11 -7 2 -12 8 24 24 132 4 28 2 56 -6 75 l-12 30 -7
-30 c-6 -23 -7 -18 -6 22 0 29 4 53 8 53 3 0 10 12 16 28 11 32 89 122 105
122 6 0 -9 -20 -33 -45 -24 -24 -41 -47 -38 -50 2 -3 24 17 47 44 43 50 81 70
130 72 22 0 23 1 7 8 -19 7 -19 8 0 16 10 4 24 7 31 6 7 -1 17 8 23 19 6 11
17 20 24 20 8 0 21 10 30 23 9 12 14 15 11 7 -5 -11 -3 -11 7 1 7 9 40 22 73
28 33 7 71 14 83 17 17 3 21 1 16 -7 -4 -8 -3 -9 5 -5 6 4 9 11 7 15 -6 9 103
47 121 43 7 -2 13 2 13 8 0 13 45 13 70 0 13 -7 21 -7 26 2 4 7 3 8 -4 4 -7
-4 -12 -3 -12 2 0 9 87 10 106 1z m496 -24 c4 -38 -6 -69 -15 -44 -2 8 -3 1
-1 -14 5 -36 -14 -76 -27 -56 -5 8 -3 20 5 29 8 9 11 23 7 34 -7 19 -8 19 -23
-2 -8 -12 -18 -19 -23 -14 -4 4 0 -7 9 -25 19 -38 20 -43 5 -43 -5 0 -15 14
-21 31 -6 16 -13 28 -15 25 -6 -6 -55 20 -100 52 -17 12 -36 22 -41 22 -6 0
-13 4 -16 9 -4 5 34 9 87 8 53 0 101 4 112 11 37 21 53 15 57 -23z m-1277
-208 c-9 -4 -13 -12 -10 -16 2 -5 -2 -14 -10 -21 -8 -7 -15 -9 -15 -5 0 4 -7
2 -15 -5 -8 -7 -12 -17 -8 -23 3 -5 1 -7 -5 -3 -6 3 -14 -3 -18 -16 -6 -21 -7
-21 -20 -3 -7 10 -11 22 -8 26 3 5 1 9 -5 9 -6 0 -7 7 -4 17 4 11 3 14 -5 9
-7 -4 -12 -1 -12 8 0 9 6 16 13 16 8 0 8 3 -2 9 -8 6 15 8 62 8 47 -1 71 -5
62 -10z m1364 -279 c0 -39 -3 -48 -9 -33 -7 16 -9 14 -9 -15 -1 -82 0 -80 -63
-80 -49 0 -56 2 -51 17 5 12 3 14 -7 8 -10 -6 -12 -4 -7 8 8 20 -1 47 -15 47
-6 0 -5 -7 2 -17 7 -10 -4 -1 -25 20 -20 21 -36 40 -34 41 5 5 178 50 212 55
4 0 7 -23 6 -51z m-214 -35 c10 -16 29 -38 42 -50 12 -12 23 -26 23 -30 0 -4
-58 -9 -130 -9 -71 -1 -146 -5 -167 -8 -32 -6 -25 1 51 42 55 31 83 52 75 56
-8 3 -4 4 9 2 12 -2 22 0 22 4 0 5 10 11 23 13 12 2 25 5 28 6 4 0 15 -11 24
-26z m-490 -305 c50 -25 53 -39 9 -52 -16 -5 -38 -13 -49 -17 -11 -5 -39 -6
-63 -2 l-43 8 28 43 c32 49 51 52 118 20z m-740 -17 c-6 -5 -44 -11 -85 -14
l-75 -6 55 14 c66 15 118 19 105 6z m961 -82 c3 -5 -3 -6 -13 -2 -13 4 -15 3
-7 -6 6 -6 24 -14 40 -17 16 -3 35 -11 43 -19 11 -11 5 -11 -30 1 -38 13 -109
51 -109 58 0 6 71 -8 76 -15z m-1041 -122 c-86 -51 -157 -88 -151 -78 4 6 33
24 64 40 31 16 66 36 77 44 11 9 22 13 25 10 3 -2 -4 -10 -15 -16z m365 -18
c-21 -28 -40 -36 -53 -22 -9 8 55 63 66 56 4 -2 -2 -18 -13 -34z m-95 2 c-3
-5 21 -24 52 -42 45 -25 71 -33 113 -34 30 0 59 4 63 10 5 6 7 3 3 -7 -10 -31
49 -113 81 -113 10 0 17 -9 18 -22 2 -30 -4 -29 -56 10 -82 60 -125 87 -142
87 -30 0 -99 40 -104 61 -3 10 -11 19 -18 19 -16 0 -37 25 -28 33 10 10 25 8
18 -2z m314 -166 c0 -5 -15 7 -34 27 -19 21 -35 43 -35 50 0 15 69 -62 69 -77z"/>
<path d="M1849 2671 c12 -8 10 -11 -10 -15 -13 -2 -37 -7 -52 -11 -17 -3 -25
-10 -21 -17 4 -7 3 -8 -4 -4 -13 8 -45 -7 -85 -41 -16 -13 -32 -21 -37 -18
-12 7 -102 -94 -94 -107 5 -7 11 -5 20 8 28 40 70 75 104 84 19 5 45 17 58 26
13 9 26 14 29 10 3 -3 23 4 45 15 21 11 44 17 50 13 6 -4 8 -3 5 3 -8 13 14
23 49 23 13 0 24 4 24 8 0 18 -26 32 -59 32 -26 0 -32 -3 -22 -9z"/>
<path d="M930 2462 c0 -8 -65 -33 -90 -34 -24 -1 -39 -18 -33 -35 5 -12 3 -14
-8 -8 -11 6 -11 5 -2 -5 7 -7 19 -10 30 -6 17 7 17 8 1 20 -10 7 -15 16 -11
19 10 11 23 8 21 -4 -2 -7 9 -15 25 -20 15 -4 25 -3 22 1 -9 15 81 23 120 10
20 -7 39 -9 42 -6 4 3 -2 6 -13 7 -16 0 -15 2 5 10 21 8 48 5 124 -17 9 -3 15
-10 12 -15 -4 -5 -2 -9 2 -9 16 0 33 23 33 44 0 15 -3 17 -11 9 -9 -9 -18 -9
-38 1 -25 13 -179 46 -214 46 -9 0 -17 -3 -17 -8z"/>
<path d="M1509 2370 c-8 -43 -8 -50 1 -45 6 3 7 -1 4 -9 -4 -10 -1 -16 7 -16
8 0 2 -11 -14 -25 -25 -24 -35 -45 -21 -45 11 0 64 65 64 80 0 14 -38 71 -41
60z"/>
<path d="M1420 2295 c-10 -12 -11 -27 -3 -60 7 -32 7 -46 -1 -49 -7 -3 -6 -5
2 -5 7 -1 10 -5 7 -11 -3 -5 -1 -10 4 -10 6 0 11 5 11 11 0 5 5 7 12 3 7 -4 8
-3 4 4 -4 7 -2 12 3 12 6 0 11 10 10 23 l0 22 -10 -23 c-8 -22 -29 -22 -29 -1
0 6 4 8 8 5 5 -3 17 9 27 27 10 18 25 37 33 43 13 9 13 12 0 17 -23 8 -61 -15
-69 -43 l-7 -25 -1 26 c-1 14 4 30 11 37 7 7 9 12 6 12 -3 0 -11 -7 -18 -15z"/>
<path d="M1765 2134 c-107 -12 -192 -31 -182 -40 2 -2 33 2 68 11 36 8 122 18
192 21 70 4 126 8 125 9 -12 10 -112 9 -203 -1z"/>
<path d="M1420 2096 c0 -22 32 -53 68 -64 18 -6 30 -7 27 -2 -3 4 -18 11 -33
15 -29 6 -57 39 -47 55 4 6 1 10 -4 10 -6 0 -11 -6 -11 -14z"/>
<path d="M1680 2050 c0 -5 14 -10 30 -10 17 0 30 5 30 10 0 6 -13 10 -30 10
-16 0 -30 -4 -30 -10z"/>
<path d="M1241 1787 c-6 -6 -11 -14 -11 -18 0 -12 42 -1 58 15 12 11 10 14
-11 14 -14 0 -30 -5 -36 -11z"/>
<path d="M1948 2765 c9 -13 28 -29 42 -34 l25 -11 -25 21 c-14 12 -24 25 -23
29 1 4 -6 10 -17 13 -19 5 -19 4 -2 -18z"/>
<path d="M752 2559 c-15 -23 -16 -40 -1 -19 7 11 8 6 3 -20 -8 -45 5 -33 16
14 9 41 0 54 -18 25z"/>
<path d="M1095 2752 c-61 -29 -175 -99 -175 -107 0 -6 125 62 162 87 15 11 44
22 63 25 19 3 32 9 29 14 -8 13 -13 12 -79 -19z"/>
<path d="M2210 2158 c0 -3 24 -10 53 -14 37 -6 45 -9 27 -12 -17 -4 0 -10 55
-23 43 -10 83 -15 87 -13 15 10 8 35 -9 33 -36 -3 -54 1 -47 12 4 8 -4 9 -27
4 -26 -5 -31 -4 -19 5 12 9 7 10 -19 5 -19 -4 -31 -3 -28 2 3 5 -12 9 -34 8
-21 0 -39 -3 -39 -7z"/>
<path d="M2222 1955 c4 -5 355 -125 364 -125 2 0 4 6 4 14 0 16 -21 26 -58 26
-41 0 -72 11 -65 23 3 6 1 7 -6 3 -7 -5 -24 -5 -39 -1 -21 5 -23 8 -11 16 10
8 9 9 -8 4 -26 -7 -105 14 -97 26 3 5 -2 6 -10 3 -9 -3 -16 -2 -16 2 0 5 -14
10 -31 11 -18 1 -30 0 -27 -2z"/>
<path d="M2190 1898 c14 -6 79 -30 145 -53 66 -24 115 -44 108 -44 -7 -1 -63
17 -124 39 -62 22 -122 40 -133 40 -27 -1 151 -66 232 -85 35 -8 67 -13 72
-10 4 3 14 -2 21 -11 8 -9 21 -13 35 -10 13 4 26 2 29 -4 3 -5 18 -10 33 -10
15 -1 44 -7 65 -14 20 -8 39 -10 42 -6 7 11 -61 41 -95 42 -16 1 -27 5 -24 9
2 4 -9 7 -25 7 -35 -1 -346 103 -332 111 5 4 -9 7 -32 7 -37 1 -39 0 -17 -8z"/>
<path d="M2090 1765 c-24 -24 -48 -41 -53 -38 -6 4 -7 1 -2 -6 9 -16 -54 -83
-72 -77 -16 7 -27 -10 -12 -19 12 -8 46 22 131 118 69 77 73 88 8 22z"/>
<path d="M773 1613 c-44 -49 -95 -106 -114 -128 -19 -22 -36 -42 -39 -45 -3
-3 -27 -30 -53 -61 -34 -41 -44 -58 -33 -62 9 -4 46 33 104 101 102 119 199
218 208 209 9 -9 -42 -78 -51 -69 -5 4 -5 2 -1 -5 5 -9 -42 -89 -82 -138 -39
-48 -162 -258 -162 -276 0 -5 6 -9 13 -9 7 0 23 21 35 48 38 83 217 379 275
454 29 39 29 70 -1 46 -13 -11 -15 -10 -9 5 13 34 -11 16 -90 -70z m102 37
c-11 -12 -21 -16 -25 -10 -6 9 -144 -126 -255 -251 -28 -30 -43 -46 -35 -35
39 55 284 316 295 316 4 0 3 -4 0 -10 -3 -5 -2 -10 3 -10 6 0 13 7 16 16 4 9
9 14 13 10 3 -3 -2 -15 -12 -26z"/>
<path d="M959 1613 c-1 -5 -1 -11 0 -15 0 -5 -3 -8 -8 -8 -6 0 -16 -11 -23
-24 -7 -14 -42 -70 -77 -126 -66 -103 -95 -128 -47 -40 51 94 11 48 -56 -65
-38 -63 -98 -190 -98 -206 0 -25 18 -33 37 -17 20 17 164 231 190 283 26 54
61 114 84 147 14 19 16 27 7 31 -10 4 -11 7 0 18 6 7 12 17 12 21 0 10 -20 11
-21 1z m1 -52 c0 -5 -6 -16 -13 -23 -8 -7 -26 -34 -42 -58 -15 -25 -32 -48
-37 -51 -5 -3 -11 -16 -13 -29 -2 -13 -8 -26 -12 -29 -5 -3 -14 -18 -22 -33
-8 -15 -22 -37 -33 -47 -10 -11 -18 -24 -18 -29 0 -5 -7 -15 -15 -22 -9 -7
-23 -28 -31 -46 -9 -19 -21 -34 -26 -34 -6 0 0 16 11 36 12 20 20 39 17 41 -2
3 -12 -9 -21 -27 -9 -18 -19 -29 -22 -27 -3 3 4 19 16 35 12 17 21 33 21 36 0
17 47 75 57 71 6 -2 24 17 39 43 25 42 47 75 116 175 20 28 28 33 28 18z"/>
<path d="M825 1524 c-28 -34 -35 -48 -26 -57 8 -8 11 -6 11 7 0 10 14 36 31
57 17 21 29 39 26 39 -3 0 -21 -21 -42 -46z"/>
<path d="M1825 1534 c-27 -18 -53 -34 -57 -34 -5 0 -31 -11 -60 -25 -28 -13
-66 -28 -85 -31 -29 -6 -57 -24 -36 -24 38 0 257 102 293 136 26 25 -4 14 -55
-22z"/>
<path d="M640 1371 c0 -7 -5 -9 -10 -6 -16 10 -40 -14 -33 -32 4 -11 2 -14 -5
-9 -7 4 -15 1 -18 -8 -3 -8 -18 -22 -32 -32 -15 -9 -21 -11 -14 -3 17 18 15
28 -5 25 -21 -3 -40 -53 -25 -68 21 -21 126 73 116 105 -3 9 -1 17 5 17 6 0
11 -6 11 -12 0 -7 5 -5 11 5 6 10 8 21 5 24 -3 4 -6 1 -6 -6z"/>
<path d="M2510 135 c0 -32 2 -35 31 -35 22 0 32 5 36 20 3 11 9 20 15 20 5 0
4 -9 -2 -20 -9 -17 -8 -20 12 -20 17 0 19 3 9 9 -9 6 -10 11 -2 15 12 8 15 27
4 25 -23 -4 -43 2 -38 11 3 6 1 10 -4 10 -6 0 -11 -13 -11 -30 0 -24 -4 -30
-21 -30 -19 0 -21 4 -15 30 3 17 1 30 -4 30 -6 0 -10 -16 -10 -35z"/>
<path d="M2656 160 c-11 -37 -13 -60 -5 -60 5 0 9 12 9 28 0 21 2 24 10 12 5
-8 10 -10 10 -5 0 6 -4 17 -10 25 -8 13 -9 13 -14 0z"/>
<path d="M2778 153 c-12 -3 -18 -13 -17 -31 1 -23 2 -23 6 -5 2 12 10 24 18
27 9 3 12 0 8 -10 -3 -7 -1 -14 5 -14 12 0 23 26 15 34 -7 6 -8 6 -35 -1z"/>
<path d="M2827 143 c-13 -13 -7 -25 7 -14 11 10 17 8 29 -9 14 -21 15 -21 19
5 3 14 1 25 -3 25 -5 0 -9 -5 -9 -12 0 -9 -3 -9 -12 0 -14 14 -22 15 -31 5z"/>
</g>
</svg>
